<?xml version="1.0" encoding="UTF-8"?>
<svg width="220px" height="150px" viewBox="0 0 220 150" version="1.1" xmlns="http://www.w3.org/2000/svg" xmlns:xlink="http://www.w3.org/1999/xlink">
    <title>Rectangle Copy 4</title>
    <defs>
        <linearGradient x1="50%" y1="0%" x2="50%" y2="100%" id="linearGradient-1">
            <stop stop-color="#BBF7D0" offset="0%"></stop>
            <stop stop-color="#86EFAC" offset="100%"></stop>
        </linearGradient>
    </defs>
    <g id="Page-1" stroke="none" stroke-width="1" fill="none" fill-rule="evenodd">
        <g id="Large-Copy" transform="translate(-445, -668)" fill="url(#linearGradient-1)" fill-rule="nonzero">
            <g id="Group-4" transform="translate(417, 552)">
                <path d="M218.238371,172.49655 L219.334404,173.597212 C219.514359,173.778709 219.692963,173.959241 219.870229,174.138819 L220.917859,175.204935 C221.089819,175.380744 221.260465,175.555623 221.429809,175.729584 L222.430345,176.762411 C222.594529,176.932742 222.757435,177.102178 222.919075,177.27073 L223.873824,178.271525 C224.030449,178.436588 224.185833,178.600789 224.339988,178.764142 L225.250257,179.734163 C225.399542,179.894166 225.547622,180.053343 225.694508,180.211706 L226.561607,181.152208 L227.40065,182.073729 C227.538185,182.225765 227.674576,182.377034 227.809833,182.527546 L228.607885,183.421644 L229.379335,184.298156 L230.124765,185.157643 L230.844756,186.000663 L231.539888,186.827773 C232.108969,187.510558 232.652762,188.177354 233.172781,188.829614 L233.785487,189.605442 C235.188961,191.399863 236.410786,193.084887 237.484188,194.692446 L237.935228,195.37675 C238.008919,195.490041 238.081876,195.602961 238.154113,195.71552 L238.578981,196.386643 L238.987127,197.049676 L239.379133,197.705179 C239.63522,198.139795 239.880934,198.569763 240.11705,198.995827 L240.464123,199.632089 C240.634157,199.948849 240.799011,200.263623 240.95901,200.576725 L241.272635,201.200793 C241.477532,201.615476 241.674188,202.027559 241.863377,202.437787 L242.141658,203.05183 C242.278095,203.358249 242.41055,203.663833 242.53935,203.968898 L242.792174,204.578426 L243.035831,205.187127 L243.270904,205.795557 L243.497974,206.404277 C243.535184,206.505785 243.572085,206.607329 243.608689,206.70892 L243.824843,207.31912 L244.034446,207.931005 L244.238081,208.545134 L244.436327,209.162066 L244.629766,209.782358 C244.661637,209.886051 244.693333,209.989907 244.724864,210.093939 C247.878018,220.497077 247.878018,231.136135 244.724864,241.539273 L244.629766,241.850854 L244.436327,242.471146 L244.238081,243.088078 L244.034446,243.702207 L243.824843,244.314092 L243.608689,244.924292 C243.572085,245.025883 243.535184,245.127427 243.497974,245.228935 L243.270904,245.837655 L243.035831,246.446085 C242.956075,246.648909 242.874888,246.851779 242.792174,247.054786 L242.53935,247.664314 C242.41055,247.969379 242.278095,248.274963 242.141658,248.581382 L241.863377,249.195425 C241.674188,249.605653 241.477532,250.017736 241.272635,250.432419 L240.95901,251.056487 C240.799011,251.369589 240.634157,251.684363 240.464123,252.001123 L240.11705,252.637385 C239.644818,253.489514 239.134194,254.357256 238.578981,255.246569 L238.154113,255.917692 L237.711943,256.597463 C236.584406,258.308165 235.289209,260.105176 233.785487,262.02777 L233.172781,262.803598 L232.53725,263.59338 C232.105826,264.124677 231.658798,264.665649 231.195393,265.21704 L230.487904,266.052036 C230.367909,266.192535 230.246867,266.333709 230.124765,266.475569 L229.379335,267.335056 L228.607885,268.211568 C228.477109,268.359104 228.345225,268.507372 228.212221,268.656384 L227.40065,269.559483 L226.561607,270.481004 L225.694508,271.421506 L224.798775,272.381547 C224.647067,272.543213 224.494142,272.705717 224.339988,272.86907 L223.400211,273.859467 C223.24109,274.026263 223.080715,274.193931 222.919075,274.362482 L221.933947,275.384493 L220.917859,276.428277 L219.870229,277.494393 C219.692963,277.673971 219.514359,277.854503 219.334404,278.036 L218.238371,279.136662 L190.909786,306.465248 L189.809124,307.56128 C189.627627,307.741235 189.447095,307.919839 189.267517,308.097105 L188.201401,309.144735 L187.157617,310.160823 L186.135606,311.145951 L185.13481,312.1007 C184.969748,312.257325 184.805546,312.412709 184.642194,312.566864 L183.672173,313.477133 C183.51217,313.626418 183.352993,313.774498 183.19463,313.921384 L182.254128,314.788483 L181.332607,315.627526 L180.429508,316.439097 L179.544273,317.223775 C179.398191,317.352346 179.252831,317.479821 179.10818,317.606211 L178.248693,318.351641 L177.405673,319.071632 C176.709863,319.661186 176.030625,320.224846 175.366504,320.764126 L174.576722,321.399657 L173.800894,322.012363 C171.8783,323.516085 170.081289,324.811282 168.370587,325.938819 L167.690816,326.380989 L167.019693,326.805857 C166.13038,327.36107 165.262638,327.871694 164.410509,328.343926 L163.774247,328.690999 C163.457487,328.861033 163.142713,329.025887 162.82961,329.185886 L162.205543,329.499511 C161.79086,329.704408 161.378777,329.901064 160.968549,330.090253 L160.354506,330.368534 C160.048087,330.504971 159.742503,330.637426 159.437438,330.766226 L158.82791,331.01905 L158.219209,331.262707 L157.610779,331.49778 L157.002059,331.72485 L156.392492,331.944497 L155.781519,332.157303 L155.168582,332.363849 L154.553121,332.564717 L153.934579,332.760487 L153.312397,332.951741 C142.909259,336.104894 132.270201,336.104894 121.867063,332.951741 L121.244881,332.760487 L120.626339,332.564717 L120.010878,332.363849 L119.397941,332.157303 L118.786968,331.944497 L118.177401,331.72485 L117.568681,331.49778 L116.960251,331.262707 C116.757426,331.182951 116.554557,331.101764 116.35155,331.01905 L115.742021,330.766226 C115.538645,330.68036 115.335038,330.592869 115.131106,330.503656 L114.518245,330.230757 C114.006562,329.998877 113.492271,329.755633 112.973917,329.499511 L112.349849,329.185886 C111.93238,328.972554 111.511938,328.750592 111.087779,328.519226 L110.448659,328.165027 C110.341643,328.104786 110.234372,328.043934 110.126834,327.982457 L109.478303,327.606009 C108.28311,326.901771 107.052765,326.119091 105.77178,325.241851 L105.067947,324.753882 C102.704473,323.095414 100.164287,321.114668 97.3543003,318.71478 L96.503117,317.982142 L95.6351871,317.223775 L94.7499519,316.439097 L93.846853,315.627526 L92.9253319,314.788483 L91.9848299,313.921384 L91.0247886,313.025651 C90.8631224,312.873943 90.7006188,312.721018 90.5372661,312.566864 L89.5468685,311.627087 C89.3800731,311.467966 89.2124054,311.307591 89.0438537,311.145951 L88.021843,310.160823 L86.9780589,309.144735 L85.9119426,308.097105 C85.7323646,307.919839 85.5518327,307.741235 85.3703355,307.56128 L84.2696739,306.465248 L56.9410884,279.136662 C56.384872,278.580446 55.8410286,278.033127 55.3092313,277.494393 L54.2616012,276.428277 L53.2455127,275.384493 L52.2603847,274.362482 L51.3056359,273.361687 C51.1490105,273.196624 50.9936266,273.032422 50.8394722,272.86907 L49.9292025,271.899049 C49.7799176,271.739046 49.6318379,271.579869 49.4849514,271.421506 L48.6178532,270.481004 L47.7788096,269.559483 L46.9672392,268.656384 L46.182561,267.771149 L45.4241936,266.903219 L44.6915561,266.052036 C42.2916679,263.242048 40.3109222,260.701863 38.652454,258.338389 L38.164485,257.634556 C37.2872453,256.353571 36.5045644,255.123226 35.8003264,253.928033 L35.4238792,253.279502 C35.3624023,253.171964 35.3015494,253.064692 35.2413085,252.957677 L34.88711,252.318557 C34.6557441,251.894398 34.4337823,251.473956 34.2204495,251.056487 L33.9068252,250.432419 C33.6507033,249.914065 33.4074589,249.399774 33.1755785,248.888091 L32.9026799,248.27523 C32.8580736,248.173264 32.8138976,248.071379 32.7701399,247.969564 L32.5125157,247.359412 C32.4282493,247.156243 32.3455589,246.953259 32.2643478,246.750367 L32.0250552,246.141871 L31.7940567,245.533366 C31.7562158,245.431916 31.7186963,245.330443 31.681486,245.228935 L31.4618389,244.619368 L31.2490327,244.008395 L31.0424865,243.395458 L30.841619,242.779997 L30.645849,242.161455 L30.4545954,241.539273 C27.3014414,231.136135 27.3014414,220.497077 30.4545954,210.093939 L30.645849,209.471757 L30.841619,208.853215 L31.0424865,208.237754 L31.2490327,207.624817 L31.4618389,207.013844 L31.681486,206.404277 L31.9085555,205.795557 L32.1436284,205.187127 L32.387286,204.578426 L32.6401094,203.968898 C32.7689094,203.663833 32.9013646,203.358249 33.0378018,203.05183 L33.3160826,202.437787 C33.5052718,202.027559 33.7019277,201.615476 33.9068252,201.200793 L34.2204495,200.576725 C34.3804491,200.263623 34.5453025,199.948849 34.7153367,199.632089 L35.0624097,198.995827 C35.5346422,198.143698 36.0452654,197.275956 36.6004788,196.386643 L37.0253464,195.71552 L37.4675164,195.035749 C38.595054,193.325047 39.8902511,191.528035 41.3939725,189.605442 L42.0066793,188.829614 L42.6422098,188.039832 C43.18149,187.375711 43.7451503,186.696472 44.3347043,186.000663 L45.054695,185.157643 L45.8001248,184.298156 L46.5715749,183.421644 C46.7023506,183.274108 46.8342346,183.12584 46.9672392,182.976828 L47.7788096,182.073729 L48.6178532,181.152208 L49.4849514,180.211706 L50.3806852,179.251665 C50.5323928,179.089998 50.6853177,178.927495 50.8394722,178.764142 L51.7792493,177.773745 C51.93837,177.606949 52.0987445,177.439281 52.2603847,177.27073 L53.2455127,176.248719 L54.2616012,175.204935 L55.3092313,174.138819 C55.4864971,173.959241 55.6651013,173.778709 55.8450561,173.597212 L56.9410884,172.49655 L84.2696739,145.167964 L85.3703355,144.071932 C85.5518327,143.891977 85.7323646,143.713373 85.9119426,143.536107 L86.9780589,142.488477 L88.021843,141.472389 L89.0438537,140.487261 L90.0446494,139.532512 C90.2097117,139.375887 90.3739135,139.220503 90.5372661,139.066348 L91.5072866,138.156079 C91.6672896,138.006794 91.8264668,137.858714 91.9848299,137.711827 L92.9253319,136.844729 L93.846853,136.005686 L94.7499519,135.194115 L95.6351871,134.409437 C95.7812686,134.280866 95.9266292,134.153391 96.0712803,134.027001 L96.9307671,133.281571 C97.0726271,133.159469 97.2138009,133.038427 97.3543003,132.918432 L98.1892955,132.210943 C98.740687,131.747537 99.2816589,131.30051 99.8129557,130.869086 L100.602738,130.233555 L101.378566,129.620849 C103.301159,128.117127 105.098171,126.82193 106.808873,125.694392 L107.488644,125.252222 L108.159766,124.827355 C109.04908,124.272141 109.916822,123.761518 110.768951,123.289286 L111.405213,122.942213 C111.721973,122.772179 112.036747,122.607325 112.349849,122.447326 L112.973917,122.133701 C113.3886,121.928804 113.800683,121.732148 114.210911,121.542959 L114.824954,121.264678 C115.131372,121.128241 115.436957,120.995785 115.742021,120.866985 L116.35155,120.614162 C116.453054,120.572805 116.554523,120.531829 116.655969,120.491224 L117.264465,120.251931 L117.87297,120.020933 C117.97442,119.983092 118.075893,119.945572 118.177401,119.908362 L118.786968,119.688715 L119.397941,119.475909 L120.010878,119.269363 C120.113229,119.235428 120.215685,119.201729 120.318258,119.168255 L120.93519,118.970009 L121.555482,118.77657 C121.659175,118.744698 121.763031,118.713003 121.867063,118.681471 C132.270201,115.528317 142.909259,115.528317 153.312397,118.681471 L153.934579,118.872725 L154.553121,119.068495 L155.168582,119.269363 L155.781519,119.475909 L156.392492,119.688715 C156.494188,119.724737 156.595826,119.761043 156.697416,119.797647 L157.30649,120.020933 C157.407939,120.058774 157.509365,120.096936 157.610779,120.135432 L158.219209,120.370504 L158.82791,120.614162 L159.437438,120.866985 C159.742503,120.995785 160.048087,121.128241 160.354506,121.264678 L160.968549,121.542959 C161.378777,121.732148 161.79086,121.928804 162.205543,122.133701 L162.82961,122.447326 C163.142713,122.607325 163.457487,122.772179 163.774247,122.942213 L164.410509,123.289286 C164.836573,123.525402 165.266541,123.771116 165.701157,124.027202 L166.35666,124.419209 L167.019693,124.827355 L167.690816,125.252222 C167.803375,125.324459 167.916294,125.397417 168.029586,125.471108 L168.71389,125.922148 C170.321449,126.99555 172.006473,128.217375 173.800894,129.620849 L174.576722,130.233555 C175.228982,130.753573 175.895777,131.297366 176.578563,131.866448 L177.405673,132.56158 L178.248693,133.281571 L179.10818,134.027001 L179.984692,134.798451 L180.878789,135.596503 C181.029302,135.73176 181.180571,135.868151 181.332607,136.005686 L182.254128,136.844729 L183.19463,137.711827 L184.154671,138.607561 C184.316337,138.759269 184.478841,138.912194 184.642194,139.066348 L185.632591,140.006125 C185.799387,140.165246 185.967054,140.325621 186.135606,140.487261 L187.157617,141.472389 C187.501885,141.805893 187.849782,142.144556 188.201401,142.488477 L189.267517,143.536107 C189.447095,143.713373 189.627627,143.891977 189.809124,144.071932 L190.909786,145.167964 L218.238371,172.49655 Z M168.759561,166.546082 L167.622991,165.41858 L166.519674,164.335123 L165.448968,163.294964 L164.410232,162.297358 L163.735185,161.65556 L162.748304,160.727217 L162.107234,160.130902 L161.170427,159.26975 L160.562144,158.717539 L159.673628,157.921505 L159.096945,157.412015 L158.532569,156.919226 L157.980309,156.442919 L157.439977,155.982871 L156.911381,155.538861 L156.394331,155.11067 L155.63999,154.497556 L155.150974,154.107941 L154.672839,153.733369 L154.205394,153.373621 L153.74845,153.028474 C153.673157,152.972154 153.598294,152.916433 153.523856,152.861307 L153.082306,152.537648 L152.650781,152.228039 L152.229091,151.932257 L151.817046,151.650082 C149.196824,149.878044 147.409757,149.053883 144.384546,148.136953 C139.802552,146.748167 135.376908,146.748167 130.794913,148.136953 C127.895753,149.015678 126.133708,149.809203 123.685752,151.433439 L123.157585,151.789483 L122.740741,152.078433 C122.670461,152.127729 122.599774,152.177596 122.528678,152.228039 L122.097154,152.537648 L121.43101,153.028474 L120.741668,153.551656 L120.268902,153.918789 L119.78535,154.300854 L119.039383,154.902436 L118.528036,155.322802 L118.005236,155.758875 L117.470796,156.210876 L116.924523,156.679026 L116.36623,157.163547 L115.795724,157.664658 L114.916651,158.447917 L114.314784,158.991474 L113.700039,159.552395 L113.072226,160.130902 L112.431155,160.727217 L111.776637,161.341559 L110.769228,162.297358 L109.730492,163.294964 L109.02028,163.983629 L107.927904,165.052571 L106.80249,166.165308 L106.033542,166.931832 L78.3189024,194.646472 L77.5626072,195.408215 L76.4645515,196.522545 L75.7567533,197.247156 L74.7308619,198.307134 L74.0704824,198.996104 L73.1146829,200.003513 L72.5003406,200.658031 L71.9040263,201.299102 L71.325519,201.926915 L70.4906626,202.844191 L69.6946285,203.732708 L68.9366705,204.593106 L68.4521503,205.1514 L67.9840002,205.697672 L67.5319991,206.232112 L66.8837936,207.012005 L66.27068,207.766346 L65.8810648,208.255362 L65.5064934,208.733497 C65.4453063,208.81229 65.3847367,208.890638 65.3247801,208.968544 L64.97236,209.430715 C64.9148371,209.506871 64.8579179,209.582593 64.801598,209.657886 L64.4708317,210.10452 C64.4168901,210.17811 64.3635385,210.251279 64.3107723,210.32403 L64.0011626,210.755554 L63.5626066,211.384461 L63.4232063,211.58929 C61.6511684,214.209512 60.8270071,215.996578 59.9100765,219.021789 C58.5212905,223.603784 58.5212905,228.029428 59.9100765,232.611422 C60.7888017,235.510583 61.5823272,237.272628 63.2065632,239.720584 L63.5626066,240.248751 L63.8515571,240.665595 L64.1542251,241.092179 L64.4708317,241.528692 L64.801598,241.975326 L65.3247801,242.664668 L65.6919125,243.137434 L66.0739781,243.620986 L66.4711982,244.115513 L67.0959261,244.8783 L67.5319991,245.4011 L67.9840002,245.93554 L68.4521503,246.481812 L68.9366705,247.040106 L69.437782,247.610612 L69.9557056,248.19352 L70.7645977,249.091552 L71.325519,249.706297 L71.9040263,250.33411 L72.5003406,250.975181 L73.4286836,251.962061 L74.0704824,252.637108 L75.0680884,253.675844 L75.7567533,254.386056 L76.8256946,255.478432 L77.9384319,256.603846 L78.7049562,257.372794 L106.419596,285.087434 L107.181339,285.843729 L108.295669,286.941784 L109.02028,287.649583 L110.080258,288.675474 L110.769228,289.335853 L111.776637,290.291653 L112.431155,290.905995 L113.072226,291.50231 L113.700039,292.080817 L114.314784,292.641738 L114.916651,293.185295 L115.505832,293.711707 L116.36623,294.469665 L116.924523,294.954186 L117.470796,295.422336 L118.005236,295.874337 L118.528036,296.31041 L119.039383,296.730776 L119.78535,297.332358 L120.268902,297.714423 L120.741668,298.081556 L121.203839,298.433976 C121.279995,298.491499 121.355717,298.548418 121.43101,298.604738 L121.877644,298.935504 L122.314157,299.252111 L122.740741,299.554779 L123.157585,299.843729 L123.362414,299.98313 C125.982636,301.755167 127.769702,302.579329 130.794913,303.496259 C135.376908,304.885045 139.802552,304.885045 144.384546,303.496259 C147.283707,302.617534 149.045752,301.824009 151.493708,300.199773 L152.021875,299.843729 L152.438719,299.554779 C152.508999,299.505483 152.579685,299.455616 152.650781,299.405173 L153.082306,299.095564 L153.74845,298.604738 L154.437792,298.081556 L154.910558,297.714423 L155.39411,297.332358 L155.888637,296.935138 L156.394331,296.522542 L157.174223,295.874337 L157.708664,295.422336 L158.254936,294.954186 L158.81323,294.469665 L159.383736,293.968554 L159.966644,293.45063 L160.562144,292.915673 L161.479421,292.080817 L162.107234,291.50231 L162.748304,290.905995 L163.402823,290.291653 L164.410232,289.335853 L165.448968,288.338247 L166.15918,287.649583 L167.251556,286.580641 L168.37697,285.467904 L169.145918,284.70138 L196.860557,256.98674 L197.616853,256.224997 L198.714908,255.110667 L199.422707,254.386056 L200.448598,253.326078 L201.108977,252.637108 L202.064777,251.629699 L202.679119,250.975181 L203.275434,250.33411 L203.853941,249.706297 L204.688797,248.78902 L205.484831,247.900504 L206.242789,247.040106 L206.72731,246.481812 L207.19546,245.93554 L207.647461,245.4011 L208.295666,244.621207 L208.90878,243.866866 L209.298395,243.37785 L209.672966,242.899715 C209.734154,242.820922 209.794723,242.742574 209.85468,242.664668 L210.2071,242.202497 C210.264623,242.126341 210.321542,242.050619 210.377862,241.975326 L210.708628,241.528692 C210.76257,241.455102 210.815921,241.381933 210.868688,241.309182 L211.178297,240.877657 L211.616853,240.248751 L211.756253,240.043922 C213.528291,237.4237 214.352453,235.636633 215.269383,232.611422 C216.658169,228.029428 216.658169,223.603784 215.269383,219.021789 C214.390658,216.122629 213.597133,214.360584 211.972897,211.912628 L211.756253,211.58929 C211.664439,211.453528 211.570393,211.31619 211.474079,211.177244 L211.178297,210.755554 L210.868688,210.32403 L210.545029,209.88248 L210.032715,209.200942 L209.672966,208.733497 L209.298395,208.255362 L208.90878,207.766346 L208.295666,207.012005 L207.867474,206.494955 L207.423465,205.966359 L206.963417,205.426026 L206.48711,204.873767 L205.994321,204.309391 L205.484831,203.732708 L204.958419,203.143528 L204.136586,202.235909 L203.275434,201.299102 L202.679119,200.658031 L202.064777,200.003513 L201.108977,198.996104 L200.448598,198.307134 L199.422707,197.247156 L198.353765,196.15478 L197.241028,195.029366 C197.115435,194.901956 196.988209,194.77473 196.860254,194.646775 L168.759561,166.546082 Z" id="Rectangle-Copy-4"></path>
            </g>
        </g>
    </g>
</svg>